<svg xmlns="http://www.w3.org/2000/svg" viewBox="0 0 100 100" fill-rule="evenodd"><g class="t-group-origins"><path d="M78.5 19H70V7.5a1.5 1.5 0 0 0-1.91-1.44l-46 13h-.08l-.15.06-.12.07-.13.08-.11.09-.1.1-.09.11-.08.12-.07.12-.06.19v.28a1.49 1.49 0 0 0 0 .16v69.09A1.5 1.5 0 0 0 22.5 91h56a1.5 1.5 0 0 0 1.5-1.5v-69a1.5 1.5 0 0 0-1.5-1.5ZM67 19H33.32L67 9.48Zm10 69H24V22h53Z" stroke-width="0" stroke="#ffffff" fill="#ffffff" stroke-width-old="0"></path><path d="M50.5 33a15 15 0 1 0 15 15 15 15 0 0 0-15-15Zm0 27a12 12 0 1 1 12-12 12 12 0 0 1-12 12ZM60 73H41a1.5 1.5 0 0 0 0 3h19a1.5 1.5 0 0 0 0-3Z" stroke-width="0" stroke="#ffffff" fill="#ffffff" stroke-width-old="0"></path></g></svg>
