<svg xmlns="http://www.w3.org/2000/svg" viewBox="0 0 100 100" fill-rule="evenodd"><g class="t-group-origins"><path d="M83.388 63.888a1.5 1.5 0 0 0-1.5 1.5v18.5h-63v-18.5a1.5 1.5 0 1 0-3 0v20a1.5 1.5 0 0 0 1.5 1.5h66a1.5 1.5 0 0 0 1.5-1.5v-20a1.5 1.5 0 0 0-1.5-1.5z" stroke-width="1" stroke="#ffffff" fill="#ffffff" stroke-width-old="0"></path><path d="M49.328 69.449c.293.293.677.439 1.061.439s.768-.146 1.061-.439l13-13a1.5 1.5 0 1 0-2.121-2.121L51.89 64.767V8.388a1.5 1.5 0 1 0-3 0v56.379L38.451 54.328a1.5 1.5 0 1 0-2.121 2.121l12.998 13z" stroke-width="1" stroke="#ffffff" fill="#ffffff" stroke-width-old="0"></path></g></svg>
