<?xml version="1.0" encoding="UTF-8"?> <svg xmlns="http://www.w3.org/2000/svg" width="517" height="142" viewBox="0 0 517 142" fill="none"><g clip-path="url(#clip0_5905_3601)"><path fill-rule="evenodd" clip-rule="evenodd" d="M18.0328 0.355469L37.4715 0.429987L37.7879 105.094H0.924805V17.1039L18.0328 0.355469Z" fill="white"></path><path fill-rule="evenodd" clip-rule="evenodd" d="M277.242 83.1729L277.282 22.7013C276.501 16.2211 270.838 8.03982 263.322 3.45581C260.944 2.00577 258.383 0.917616 255.729 0.355469L170.37 0.567767C157.598 2.36162 149.42 13.397 148.375 21.5617L148.45 82.6915C150.833 94.7124 159.327 102.739 171.266 104.882H255.62C264.832 102.494 274.491 92.7238 277.242 83.1729ZM185.226 29.7149L240.529 29.9272V76.6582H185.335L185.226 29.7149Z" fill="white"></path><path fill-rule="evenodd" clip-rule="evenodd" d="M47.6074 18.4166L93.0786 60.346L93.1571 0H130.167L130.165 105.095H93.3024L47.8257 60.6101L47.6074 18.4166Z" fill="white"></path><path fill-rule="evenodd" clip-rule="evenodd" d="M347.147 51.6598L364.243 93.7845L406.412 0.568359H369.55L347.147 51.6598Z" fill="white"></path><path fill-rule="evenodd" clip-rule="evenodd" d="M323.728 105.095H359.828L314.253 0.442383H277.391L312.588 79.9419L323.728 105.095Z" fill="white"></path><path fill-rule="evenodd" clip-rule="evenodd" d="M424.841 105.095L452.417 41.6102L460.612 60.4436L452.337 60.489L443.94 81.22L441.282 87.78L472.843 87.837L480.05 104.993L517 105.095L470.822 0.568359L435.12 0.579656L387.978 105.095H424.841Z" fill="white"></path><path fill-rule="evenodd" clip-rule="evenodd" d="M23.6085 131.63H18.0897C17.8482 133.481 17.2453 134.89 16.2636 135.852C15.2874 136.821 13.9614 137.308 12.2837 137.314C10.9118 137.309 9.72814 136.953 8.72906 136.254C7.72974 135.555 6.96006 134.57 6.41524 133.291C5.86943 132.014 5.5935 130.495 5.58822 128.748C5.58822 127.9 5.66821 127.057 5.82893 126.232C5.98463 125.407 6.23138 124.629 6.56994 123.895C6.90296 123.167 7.33358 122.52 7.86783 121.958C8.39604 121.403 9.03391 120.961 9.77995 120.64C10.5207 120.319 11.3829 120.159 12.3531 120.153C13.3574 120.153 14.2426 120.33 15.0115 120.68C15.7928 121.024 16.4246 121.528 16.9352 122.188C17.4413 122.841 17.7856 123.632 17.9808 124.559H23.4309C23.316 123.241 22.9714 122.044 22.3914 120.944C21.8113 119.839 21.0354 118.881 20.0705 118.068C19.0951 117.26 17.9695 116.63 16.6829 116.182C15.3963 115.73 13.9956 115.506 12.462 115.501C10.9058 115.506 9.48113 115.73 8.18425 116.171C6.89139 116.607 5.73134 117.231 4.72095 118.033C3.7103 118.842 2.85435 119.787 2.15384 120.886C1.4473 121.981 0.913051 123.196 0.551856 124.519C0.183617 125.837 0 127.241 0 128.713C0.00628822 130.725 0.298815 132.535 0.878841 134.163C1.45358 135.789 2.28564 137.188 3.35967 138.356C4.43974 139.52 5.7253 140.419 7.23071 141.049C8.72378 141.674 10.3942 141.995 12.2495 142C13.9893 141.995 15.5229 141.749 16.8726 141.25C18.2162 140.752 19.3703 140.047 20.3185 139.13C21.2658 138.219 22.0178 137.125 22.5689 135.852C23.1208 134.586 23.4654 133.177 23.6085 131.63ZM45.5403 116.103H24.7115V120.829H32.3313V141.399H37.9195V120.829H45.5403V116.103ZM48.4913 116.103V141.399H54.0111V132.3H59.7072C60.9938 132.3 62.1767 132.145 63.2621 131.819C64.3534 131.492 65.312 130.999 66.1214 130.335C66.9369 129.676 67.5687 128.834 68.0285 127.82C68.4818 126.811 68.7122 125.614 68.7175 124.238C68.7122 122.846 68.4881 121.637 68.0338 120.617C67.5916 119.591 66.9545 118.743 66.1277 118.079C65.3067 117.414 64.3243 116.915 63.1934 116.589C62.0625 116.263 60.7986 116.103 59.426 116.103H48.4913ZM54.0111 120.651H58.9954C59.8224 120.646 60.5571 120.76 61.2056 121.001C61.8497 121.236 62.3603 121.62 62.7338 122.159C63.1074 122.697 63.2963 123.413 63.3076 124.307C63.2963 125.241 63.1074 125.969 62.7338 126.496C62.3603 127.029 61.8437 127.401 61.2003 127.619C60.5455 127.831 59.7995 127.94 58.9612 127.934H54.0111V120.651ZM83.6716 115.501C81.7708 115.506 80.0483 115.821 78.5087 116.446C76.9638 117.07 75.6494 117.97 74.5464 119.128C73.4382 120.296 72.5938 121.695 71.9972 123.321C71.4108 124.949 71.1067 126.771 71.1007 128.788C71.1067 130.776 71.4108 132.576 72.0024 134.191C72.5998 135.807 73.4497 137.199 74.5524 138.368C75.6546 139.525 76.9701 140.419 78.5087 141.049C80.0423 141.674 81.7479 141.995 83.6374 142C85.503 141.995 87.1973 141.674 88.7193 141.049C90.2469 140.413 91.556 139.514 92.6537 138.345C93.762 137.188 94.6003 135.795 95.1969 134.179C95.7893 132.563 96.0934 130.764 96.0987 128.788C96.0934 126.794 95.7893 124.989 95.1969 123.368C94.6003 121.74 93.762 120.343 92.659 119.173C91.5623 117.999 90.2582 117.093 88.7369 116.458C87.2202 115.827 85.5269 115.506 83.6716 115.501ZM83.6032 120.045C85.0153 120.057 86.2387 120.4 87.2667 121.099C88.2889 121.792 89.0752 122.789 89.6326 124.072C90.1898 125.355 90.4657 126.897 90.471 128.679C90.4657 130.484 90.195 132.043 89.6386 133.343C89.0928 134.649 88.3179 135.646 87.3012 136.351C86.2905 137.056 85.0787 137.411 83.6716 137.416C82.2304 137.399 80.9896 137.039 79.9563 136.345C78.9228 135.646 78.1302 134.649 77.5731 133.348C77.0157 132.054 76.7345 130.495 76.7284 128.679C76.7345 126.914 77.0209 125.396 77.5781 124.101C78.1355 122.817 78.9228 121.815 79.95 121.116C80.9783 120.417 82.1962 120.056 83.6032 120.045ZM121.379 116.103H115.113L105.568 133.618H105.459V116.103H99.9063V141.399H106.171L115.716 123.849H115.826V141.399H121.379V116.103ZM145.124 116.103H124.296V120.829H131.916V141.399H137.504V120.829H145.124V116.103ZM167.056 116.103H148.048V141.399H167.308V136.74H153.566V130.524H165.953V126.158H153.566V120.651H167.056V116.103ZM192.02 116.103H174.355L173.93 131.487C173.896 132.769 173.792 133.813 173.631 134.598C173.476 135.394 173.27 135.99 173.017 136.403C172.752 136.804 172.466 137.079 172.138 137.222C171.811 137.365 171.455 137.428 171.082 137.416C170.846 137.416 170.599 137.394 170.352 137.353C170.105 137.314 169.876 137.262 169.663 137.199C169.451 137.136 169.273 137.061 169.123 136.993V141.468C169.376 141.554 169.686 141.623 170.047 141.686C170.404 141.754 170.778 141.799 171.168 141.84C171.558 141.874 171.92 141.892 172.258 141.892C173.706 141.904 174.94 141.536 175.957 140.809C176.979 140.081 177.766 138.953 178.334 137.423C178.898 135.904 179.224 133.944 179.305 131.555L179.661 120.829H186.46V141.399H192.02V116.103ZM217.259 133.262C217.254 131.887 217.023 130.69 216.569 129.681C216.116 128.668 215.479 127.825 214.668 127.167C213.853 126.501 212.9 126.009 211.809 125.682C210.724 125.355 209.535 125.196 208.254 125.196H202.27V116.103H196.752V141.399H207.967C209.346 141.399 210.603 141.238 211.734 140.912C212.872 140.585 213.848 140.086 214.675 139.423C215.495 138.758 216.133 137.909 216.576 136.884C217.029 135.864 217.253 134.655 217.259 133.262ZM211.849 133.189C211.849 134.088 211.671 134.804 211.327 135.343C210.982 135.881 210.488 136.265 209.845 136.5C209.202 136.735 208.438 136.855 207.542 136.849H202.27V129.566H207.507C208.34 129.561 209.087 129.681 209.741 129.916C210.391 130.145 210.907 130.535 211.281 131.062C211.653 131.595 211.843 132.312 211.849 133.189ZM242.044 116.103H236.485V125.625H226.125V116.103H220.572V141.399H226.125V130.49H236.485V141.399H242.044V116.103ZM259.56 116.103H253.828L244.181 141.399H249.877L251.939 135.75H261.374L263.367 141.399H269.208L259.56 116.103ZM260.025 131.698H253.294L256.677 122.308L260.025 131.698ZM283.381 131.487H286.688V141.399H292.207V116.103H279.786C278.608 116.103 277.5 116.252 276.455 116.555C275.41 116.858 274.48 117.323 273.669 117.953C272.865 118.578 272.228 119.385 271.763 120.359C271.303 121.34 271.074 122.497 271.063 123.849C271.073 125.196 271.32 126.364 271.82 127.355C272.32 128.341 272.998 129.154 273.871 129.785C274.738 130.427 275.737 130.879 276.863 131.166L268.995 141.399H275.973L283.381 131.487ZM286.688 127.47H281.422C280.767 127.475 280.148 127.436 279.556 127.355C278.97 127.264 278.447 127.098 277.988 126.851C277.534 126.6 277.172 126.238 276.908 125.763C276.644 125.287 276.512 124.656 276.507 123.883C276.512 123.162 276.644 122.577 276.903 122.118C277.167 121.671 277.517 121.327 277.959 121.081C278.401 120.847 278.901 120.68 279.453 120.6C280.004 120.508 280.578 120.468 281.17 120.474H286.688V127.47ZM329.489 116.103H322.471L312.502 126.616V116.103H307.023V141.399H312.502V133.228L315.746 130.031L323.436 141.399H330.413L319.554 126.083L329.489 116.103ZM343.478 115.501C341.582 115.506 339.855 115.821 338.315 116.446C336.776 117.07 335.456 117.97 334.353 119.128C333.25 120.296 332.4 121.695 331.809 123.321C331.217 124.949 330.918 126.771 330.913 128.788C330.918 130.776 331.217 132.576 331.815 134.191C332.406 135.807 333.256 137.199 334.359 138.368C335.461 139.525 336.782 140.419 338.315 141.049C339.849 141.674 341.56 141.995 343.444 142C345.316 141.995 347.004 141.674 348.531 141.049C350.053 140.413 351.369 139.514 352.465 138.345C353.568 137.188 354.412 135.795 355.003 134.179C355.596 132.563 355.9 130.764 355.905 128.788C355.9 126.794 355.596 124.989 355.003 123.368C354.412 121.74 353.568 120.343 352.472 119.173C351.374 117.999 350.064 117.093 348.549 116.458C347.027 115.827 345.339 115.506 343.478 115.501ZM343.41 120.045C344.827 120.057 346.051 120.4 347.078 121.099C348.095 121.792 348.888 122.789 349.445 124.072C349.996 125.355 350.272 126.897 350.283 128.679C350.271 130.484 350.001 132.043 349.45 133.343C348.904 134.649 348.124 135.646 347.114 136.351C346.097 137.056 344.885 137.411 343.478 137.416C342.037 137.399 340.796 137.039 339.763 136.345C338.734 135.646 337.936 134.649 337.379 133.348C336.822 132.054 336.541 130.495 336.535 128.679C336.54 126.914 336.828 125.396 337.385 124.101C337.942 122.817 338.734 121.815 339.756 121.116C340.785 120.417 342.002 120.056 343.41 120.045ZM359.718 141.399H365.019V123.596L371.324 141.399H375.632L381.863 123.419V141.399H387.094V116.103H379.336L373.564 133.474L367.655 116.103H359.718V141.399ZM413.482 116.103H392.01V141.399H397.563V120.829H407.923V141.399H413.482V116.103ZM430.997 116.103H425.266L415.618 141.399H421.315L423.376 135.75H432.812L434.805 141.399H440.645L430.997 116.103ZM431.462 131.698H424.731L428.114 122.308L431.462 131.698ZM464.253 116.103H458.7V125.625H448.335V116.103H442.782V141.399H448.335V130.49H458.7V141.399H464.253V116.103ZM490.635 116.103H484.37L474.826 133.618H474.716V116.103H469.163V141.399H475.435L484.973 123.849H485.082V141.399H490.635V116.103ZM507.582 131.487H510.895V141.399H516.414V116.103H503.987C502.809 116.103 501.701 116.252 500.656 116.555C499.611 116.858 498.681 117.323 497.877 117.953C497.067 118.578 496.429 119.385 495.97 120.359C495.505 121.34 495.275 122.497 495.263 123.849C495.276 125.196 495.523 126.364 496.022 127.355C496.522 128.341 497.205 129.154 498.077 129.785C498.944 130.427 499.939 130.879 501.069 131.166L493.197 141.399H500.179L507.582 131.487ZM510.895 127.47H505.623C504.969 127.475 504.348 127.436 503.763 127.355C503.172 127.264 502.649 127.098 502.195 126.851C501.736 126.6 501.375 126.238 501.115 125.763C500.846 125.287 500.719 124.656 500.713 123.883C500.718 123.162 500.846 122.577 501.11 122.118C501.368 121.671 501.718 121.327 502.166 121.081C502.603 120.847 503.102 120.68 503.654 120.6C504.205 120.508 504.779 120.468 505.376 120.474H510.895V127.47Z" fill="white"></path></g><defs><clipPath id="clip0_5905_3601"><rect width="517" height="142" fill="white"></rect></clipPath></defs></svg> 